# xmcd
#
# Track frame offsets:
#	150
#	17260
#	31192
#	48262
#	64072
#	82692
#	95900
#	114132
#	127702
#	143262
#	165160
#
# Disc length: 2299 seconds
# Revision: 4
# Processed by: cddbd v1.5.2PL0 Copyright (c) Steve Scherf et al.
# Submitted via: dBpowerAMP V12.0
#
DISCID=6908f90b
DTITLE=Rodney Crowell - Jewel Of The South
DYEAR=1995
DGENRE=Country
TTITLE0=Say You Love Me
TTITLE1=Candy Man
TTITLE2=Please Remember Me
TTITLE3=The Ballad Of Possum Potez
TTITLE4=Thinking About Leaving
TTITLE5=The Ladder Of Love
TTITLE6=Just Say Yes
TTITLE7=Storm Of Love
TTITLE8=Love To Burn
TTITLE9=Jewel Of The South
TTITLE10=Que' Es Amor (What Is Love)
EXTD=
EXTT0=
EXTT1=
EXTT2=
EXTT3=
EXTT4=
EXTT5=
EXTT6=
EXTT7=
EXTT8=
EXTT9=
EXTT10=
PLAYORDER=
